<?xml version="1.0" encoding="UTF-8" standalone="no"?>
<svg
   xmlns:dc="http://purl.org/dc/elements/1.1/"
   xmlns:cc="http://creativecommons.org/ns#"
   xmlns:rdf="http://www.w3.org/1999/02/22-rdf-syntax-ns#"
   xmlns:svg="http://www.w3.org/2000/svg"
   xmlns="http://www.w3.org/2000/svg"
   xmlns:xlink="http://www.w3.org/1999/xlink"
   xmlns:sodipodi="http://sodipodi.sourceforge.net/DTD/sodipodi-0.dtd"
   xmlns:inkscape="http://www.inkscape.org/namespaces/inkscape"
   width="256"
   height="256"
   viewBox="0 0 67.733331 67.733335"
   version="1.1"
   id="svg8"
   inkscape:version="1.0rc1 (09960d6f05, 2020-04-09)"
   sodipodi:docname="exclamation.svg">
  <title
     id="title835">Exclamation</title>
  <sodipodi:namedview
     inkscape:snap-midpoints="true"
     inkscape:object-nodes="false"
     inkscape:snap-others="true"
     inkscape:snap-nodes="false"
     inkscape:snap-object-midpoints="true"
     id="base"
     pagecolor="#202020"
     bordercolor="#666666"
     borderopacity="1.0"
     inkscape:pageopacity="0"
     inkscape:pageshadow="2"
     inkscape:zoom="2.59375"
     inkscape:cx="88.377822"
     inkscape:cy="120.83262"
     inkscape:document-units="mm"
     inkscape:current-layer="layer1"
     inkscape:document-rotation="0"
     showgrid="true"
     units="px"
     inkscape:window-width="1920"
     inkscape:window-height="1027"
     inkscape:window-x="-8"
     inkscape:window-y="-8"
     inkscape:window-maximized="1">
    <inkscape:grid
       empspacing="16"
       type="xygrid"
       id="grid833" />
  </sodipodi:namedview>
  <g
     inkscape:label="Exclamation"
     inkscape:groupmode="layer"
     id="layer1">
    <path
       style="color:#000000;font-style:normal;font-variant:normal;font-weight:normal;font-stretch:normal;font-size:medium;line-height:normal;font-family:sans-serif;font-variant-ligatures:normal;font-variant-position:normal;font-variant-caps:normal;font-variant-numeric:normal;font-variant-alternates:normal;font-feature-settings:normal;text-indent:0;text-align:start;text-decoration:none;text-decoration-line:none;text-decoration-style:solid;text-decoration-color:#000000;letter-spacing:normal;word-spacing:normal;text-transform:none;writing-mode:lr-tb;direction:ltr;text-orientation:mixed;dominant-baseline:auto;baseline-shift:baseline;text-anchor:start;white-space:normal;shape-padding:0;clip-rule:nonzero;display:inline;overflow:visible;visibility:visible;isolation:auto;mix-blend-mode:normal;color-interpolation:sRGB;color-interpolation-filters:linearRGB;solid-color:#000000;solid-opacity:1;vector-effect:none;fill:#ffffff;fill-opacity:1;fill-rule:nonzero;stroke:none;stroke-width:5.29167;stroke-linecap:round;stroke-linejoin:round;stroke-miterlimit:4;stroke-dasharray:none;stroke-dashoffset:0;stroke-opacity:1;color-rendering:auto;image-rendering:auto;shape-rendering:auto;text-rendering:auto;enable-background:new"
       d="M 33.691989,2.648768 C 31.827733,2.710517 30.133656,3.7495423 29.233278,5.38349 L 0.66411298,57.241918 c -1.94209688,3.526617 0.60801352,7.84464 4.63338952,7.845529 H 62.43583 c 4.025376,-0.0011 6.575487,-4.318912 4.63339,-7.845529 L 38.500057,5.38349 C 37.539247,3.6399308 35.681394,2.5832249 33.691989,2.648768 Z m 0.07027,2.1146013 v 0 c 1.184117,-0.039317 2.292617,0.592059 2.864435,1.6298783 L 65.222743,58.299221 c 1.144272,2.078973 -0.38825,4.671111 -2.761089,4.671556 H 5.2695625 C 2.8967761,62.970332 1.3642545,60.378194 2.508526,58.299221 L 31.105578,6.3932476 c 0.535729,-0.9724984 1.54501,-1.5930906 2.654568,-1.6298783 z m 0.03493,1.0593723 c -0.737025,0.025188 -1.405733,0.4348754 -1.761757,1.081073 L 3.4393843,58.809784 c -0.779146,1.415634 0.2163765,3.101324 1.8320832,3.101626 H 62.463506 c 1.615707,-3.02e-4 2.611229,-1.685992 1.832136,-3.101626 L 35.698539,6.9038146 C 35.318385,6.213839 34.586441,5.7973892 33.799251,5.8227416 v 0 z M 31.750421,21.760817 h 4.232492 c 0.648865,1.59e-4 1.163904,0.481315 1.125328,1.052134 l -1.058123,23.283375 c -0.03545,0.524648 -0.528956,0.934171 -1.125328,0.934309 h -2.116246 c -0.596371,-1.38e-4 -1.088762,-0.409661 -1.124269,-0.934309 L 30.625147,22.812951 c -0.03863,-0.570819 0.476409,-1.051975 1.125274,-1.052134 z m 2.082168,28.012811 c 1.753184,-5e-6 3.174369,1.421497 3.174369,3.175005 0,1.753508 -1.421185,3.175011 -3.174369,3.175006 -1.753184,5e-6 -3.174422,-1.421498 -3.174369,-3.175006 -5.3e-5,-1.753508 1.421185,-3.17501 3.174369,-3.175005 z"
       id="path6144"
       inkscape:connector-curvature="0"
       sodipodi:nodetypes="ccccccccccccccccccccccccccccccccccccccccc" />
  </g>
</svg>
