<?xml version="1.0" encoding="UTF-8" standalone="no"?>
<svg
   xmlns:dc="http://purl.org/dc/elements/1.1/"
   xmlns:cc="http://creativecommons.org/ns#"
   xmlns:rdf="http://www.w3.org/1999/02/22-rdf-syntax-ns#"
   xmlns:svg="http://www.w3.org/2000/svg"
   xmlns="http://www.w3.org/2000/svg"
   xmlns:xlink="http://www.w3.org/1999/xlink"
   xmlns:sodipodi="http://sodipodi.sourceforge.net/DTD/sodipodi-0.dtd"
   xmlns:inkscape="http://www.inkscape.org/namespaces/inkscape"
   sodipodi:docname="favorite.svg"
   inkscape:version="1.0beta2 (2c1767d, 2020-02-22)"
   id="svg8"
   version="1.1"
   viewBox="0 0 5.2916665 5.2916668"
   height="20"
   width="20">
  <title
     id="title13100">Favorite</title>
  <sodipodi:namedview
     inkscape:window-maximized="1"
     inkscape:window-y="-8"
     inkscape:window-x="-8"
     inkscape:window-height="1027"
     inkscape:window-width="1920"
     inkscape:snap-smooth-nodes="true"
     inkscape:snap-center="false"
     inkscape:snap-object-midpoints="false"
     inkscape:snap-others="true"
     inkscape:object-nodes="false"
     units="px"
     showgrid="true"
     inkscape:document-rotation="0"
     inkscape:current-layer="layer1"
     inkscape:document-units="mm"
     inkscape:cy="11.695464"
     inkscape:cx="5.8979142"
     inkscape:zoom="20.925"
     inkscape:pageshadow="2"
     inkscape:pageopacity="0"
     borderopacity="1.0"
     bordercolor="#666666"
     pagecolor="#202020"
     id="base">
    <inkscape:grid
       id="grid8076"
       type="xygrid" />
  </sodipodi:namedview>
  <g
     id="layer1"
     inkscape:groupmode="layer"
     inkscape:label="Favorite">
    <path
       style="color:#000000;font-style:normal;font-variant:normal;font-weight:normal;font-stretch:normal;font-size:medium;line-height:normal;font-family:sans-serif;font-variant-ligatures:normal;font-variant-position:normal;font-variant-caps:normal;font-variant-numeric:normal;font-variant-alternates:normal;font-feature-settings:normal;text-indent:0;text-align:start;text-decoration:none;text-decoration-line:none;text-decoration-style:solid;text-decoration-color:#000000;letter-spacing:normal;word-spacing:normal;text-transform:none;writing-mode:lr-tb;direction:ltr;text-orientation:mixed;dominant-baseline:auto;baseline-shift:baseline;text-anchor:start;white-space:normal;shape-padding:0;clip-rule:nonzero;display:inline;overflow:visible;visibility:visible;isolation:auto;mix-blend-mode:normal;color-interpolation:sRGB;color-interpolation-filters:linearRGB;solid-color:#000000;solid-opacity:1;vector-effect:none;fill:#ffffff;fill-opacity:1;fill-rule:nonzero;stroke:none;stroke-width:0.264583;stroke-linecap:round;stroke-linejoin:round;stroke-miterlimit:4;stroke-dasharray:none;stroke-dashoffset:0;stroke-opacity:1;color-rendering:auto;image-rendering:auto;shape-rendering:auto;text-rendering:auto;enable-background:new"
       d="M 2.5796871,0.79418 C 2.5234591,0.79406 2.4733037,0.82948 2.4546302,0.88258 L 2.0226151,2.11713 H 0.92604127 c -0.07306,1e-5 -0.13228435,0.0592 -0.13229175,0.13229 v 0.19844 c 1.117e-4,0.045 0.023082,0.0869 0.060978,0.11111 L 1.6924024,3.09795 1.3306675,4.12373 c -0.00505,0.0141 -0.00767,0.029 -0.00775,0.0439 v 0.19844 c 7.4e-6,0.0731 0.059232,0.13228 0.1322916,0.13229 h 0.1984375 c 0.031674,0 0.062296,-0.0114 0.0863,-0.032 L 2.628782,3.70465 h 0.034106 l 0.8888346,0.76171 c 0.024273,0.0209 0.055304,0.0323 0.087333,0.032 l 0.197404,-0.002 c 0.072254,-5.3e-4 0.1306883,-0.059 0.1312582,-0.13125 l 0.00103,-0.1974099 c -2.09e-5,-0.0151 -0.00265,-0.0302 -0.00775,-0.0444 L 3.5992629,3.09752 4.4369377,2.55854 c 0.037896,-0.0243 0.060867,-0.0661 0.060979,-0.11111 V 2.24899 C 4.4979093,2.17589 4.4386847,2.11671 4.3656251,2.1167 H 3.2690513 L 2.8370362,0.88215 c -0.018674,-0.053 -0.068829,-0.0885 -0.1250569,-0.0884 h -0.066663 z"
       id="path14398"
       inkscape:connector-curvature="0"
       sodipodi:nodetypes="cccccccccccccccccccccccccccccccc" />
  </g>
</svg>
