<?xml version="1.0" encoding="UTF-8" standalone="no"?>
<svg
   xmlns:dc="http://purl.org/dc/elements/1.1/"
   xmlns:cc="http://creativecommons.org/ns#"
   xmlns:rdf="http://www.w3.org/1999/02/22-rdf-syntax-ns#"
   xmlns:svg="http://www.w3.org/2000/svg"
   xmlns="http://www.w3.org/2000/svg"
   xmlns:xlink="http://www.w3.org/1999/xlink"
   xmlns:sodipodi="http://sodipodi.sourceforge.net/DTD/sodipodi-0.dtd"
   xmlns:inkscape="http://www.inkscape.org/namespaces/inkscape"
   sodipodi:docname="settings.svg"
   inkscape:version="1.0 (4035a4fb49, 2020-05-01)"
   id="svg8"
   version="1.1"
   viewBox="0 0 5.2916665 5.2916668"
   height="20"
   width="20">
  <title
     id="title13928">settings</title>
  <sodipodi:namedview
     inkscape:window-maximized="1"
     inkscape:window-y="-8"
     inkscape:window-x="-8"
     inkscape:window-height="1027"
     inkscape:window-width="1920"
     inkscape:snap-object-midpoints="true"
     inkscape:snap-nodes="false"
     units="px"
     showgrid="true"
     inkscape:document-rotation="0"
     inkscape:current-layer="layer1"
     inkscape:document-units="mm"
     inkscape:cy="8.2503461"
     inkscape:cx="-18.191154"
     inkscape:zoom="11.2"
     inkscape:pageshadow="2"
     inkscape:pageopacity="0"
     borderopacity="1.0"
     bordercolor="#666666"
     pagecolor="#808080"
     id="base">
    <inkscape:grid
       empspacing="4"
       id="grid833"
       type="xygrid" />
  </sodipodi:namedview>
  <g
     id="layer1"
     inkscape:groupmode="layer"
     inkscape:label="settings">
    <path
       inkscape:label="settings"
       inkscape:connector-curvature="0"
       id="settings"
       d="m 2.3812495,0.79374983 -0.04134,0.50436197 c -0.164862,0.03764 -0.284895,0.06653 -0.42168,0.157096 l -0.4630213,-0.396875 -0.396875,0.396875 0.396875,0.463021 c -0.09056,0.136787 -0.119454,0.256818 -0.157096,0.42168 l -0.50436202,0.04134 v 0.264583 0.264584 l 0.50436102,0.041342 c 0.03764,0.164862 0.06653,0.284895 0.157096,0.421679 l -0.396875,0.463021 0.396875,0.396875 0.4630213,-0.396875 c 0.136787,0.09056 0.256818,0.119454 0.42168,0.157097 l 0.04134,0.504362 h 0.264583 0.264584 l 0.04134,-0.504362 c 0.164862,-0.03764 0.284895,-0.06653 0.42168,-0.157097 l 0.463022,0.396875 0.396875,-0.396875 -0.396875,-0.463021 c 0.090565,-0.136787 0.119454,-0.256817 0.157097,-0.421679 l 0.504362,-0.04134 v -0.264584 -0.264583 l -0.504362,-0.04134 c -0.03764,-0.164862 -0.06653,-0.284896 -0.157097,-0.42168 l 0.396875,-0.463023 -0.396875,-0.396875 -0.46302,0.396875 c -0.136787,-0.09056 -0.256818,-0.119454 -0.42168,-0.157096 l -0.04134,-0.50436197 h -0.264584 z m 0.264583,1.32291697 c 0.295384,0 0.529167,0.233783 0.529167,0.529166 0,0.295384 -0.233783,0.529167 -0.529167,0.529167 -0.295383,0 -0.529166,-0.233783 -0.529166,-0.529167 0,-0.295383 0.233783,-0.529166 0.529166,-0.529166 z"
       style="color:#000000;display:inline;overflow:visible;visibility:visible;fill:#ffffff;fill-opacity:1;fill-rule:nonzero;stroke:none;stroke-width:0.264583;marker:none;enable-background:accumulate" />
  </g>
</svg>
