<?xml version="1.0" encoding="UTF-8" standalone="no"?>
<svg
   height="24"
   viewBox="0 -960 960 960"
   width="24"
   fill="#ffffff"
   version="1.1"
   id="svg2"
   xmlns="http://www.w3.org/2000/svg"
   xmlns:svg="http://www.w3.org/2000/svg">
  <defs
     id="defs2" />
  <path
     id="path6"
     style="display:inline;fill:#ffffff;stroke:none;stroke-width:39.9999;stroke-opacity:0.660754"
     d="M 480,-780 C 299,-780 122.01563,-615.03125 66.015625,-527.03125 49.015625,-499.03125 40,-480 40,-480 c 0,0 9.015625,19.03125 26.015625,47.03125 C 122.01563,-344.96875 299,-180 480,-180 661,-180 837.98437,-344.96875 893.98438,-432.96875 910.98438,-460.96875 920,-480 920,-480 c 0,0 -9.01563,-19.03125 -26.01562,-47.03125 C 837.98438,-615.03125 661,-780 480,-780 Z m 0,71.32812 A 228.65569,228.65569 0 0 1 708.67188,-480 228.65569,228.65569 0 0 1 480,-251.32812 228.65569,228.65569 0 0 1 251.32812,-480 228.65569,228.65569 0 0 1 480,-708.67188 Z" />
  <ellipse
     style="display:inline;fill:#ffffff;stroke:none;stroke-width:18.5909"
     id="circle7"
     cx="480"
     cy="-480"
     rx="106.67976"
     ry="104.52744" />
</svg>
