<?xml version="1.0" encoding="UTF-8" standalone="no"?>
<svg
   xmlns:dc="http://purl.org/dc/elements/1.1/"
   xmlns:cc="http://creativecommons.org/ns#"
   xmlns:rdf="http://www.w3.org/1999/02/22-rdf-syntax-ns#"
   xmlns:svg="http://www.w3.org/2000/svg"
   xmlns="http://www.w3.org/2000/svg"
   xmlns:xlink="http://www.w3.org/1999/xlink"
   xmlns:sodipodi="http://sodipodi.sourceforge.net/DTD/sodipodi-0.dtd"
   xmlns:inkscape="http://www.inkscape.org/namespaces/inkscape"
   inkscape:version="1.0 (4035a4fb49, 2020-05-01)"
   sodipodi:docname="wiki.svg"
   id="svg8"
   version="1.1"
   viewBox="0 0 5.2916665 5.2916668"
   height="20"
   width="20">
  <title
     id="title13930">wiki</title>
  <sodipodi:namedview
     inkscape:window-maximized="1"
     inkscape:window-y="-8"
     inkscape:window-x="-8"
     inkscape:window-height="1027"
     inkscape:window-width="1920"
     inkscape:snap-object-midpoints="true"
     inkscape:snap-nodes="false"
     units="px"
     showgrid="true"
     inkscape:document-rotation="0"
     inkscape:current-layer="layer1"
     inkscape:document-units="mm"
     inkscape:cy="10.005583"
     inkscape:cx="-1.853496"
     inkscape:zoom="15.839192"
     inkscape:pageshadow="2"
     inkscape:pageopacity="0"
     borderopacity="1.0"
     bordercolor="#666666"
     pagecolor="#808080"
     id="base">
    <inkscape:grid
       empspacing="4"
       id="grid833"
       type="xygrid" />
  </sodipodi:namedview>
  <g
     id="layer1"
     inkscape:groupmode="layer"
     inkscape:label="wiki">
    <path
       inkscape:label="wiki"
       inkscape:connector-curvature="0"
       id="wiki"
       d="m 1.7188503,0.79374099 c -0.405321,0 -0.661459,0.34184901 -0.661459,0.66145801 v 2.38125 c 0,0.319609 0.256138,0.661458 0.661459,0.661458 h 2.38125 c 0.1789,0.0026 0.1789,-0.267112 0,-0.264583 h -2.38125 c -0.256138,0 -0.396875,-0.21758 -0.396875,-0.396875 0,-0.179295 0.140737,-0.396875 0.396875,-0.396875 h 2.38125 c 0.07306,-8e-6 0.132283,-0.05923 0.132291,-0.132292 V 0.92603199 c -8e-6,-0.07306 -0.05923,-0.132283 -0.132291,-0.132291 z M 2.7771833,1.058324 c 0.363746,0 0.661458,0.297712 0.661458,0.661458 0,0.312278 -0.227613,0.595313 -0.529166,0.646989 V 2.645824 H 2.6448913 V 2.248949 c 8e-6,-0.07306 0.05923,-0.132284 0.132292,-0.132292 0.220755,0 0.396875,-0.17612 0.396875,-0.396875 0,-0.220755 -0.17612,-0.396875 -0.396875,-0.396875 -0.220755,0 -0.396875,0.17612 -0.396875,0.396875 V 1.852074 H 2.1157253 V 1.719782 c 0,-0.363746 0.297711,-0.661458 0.661458,-0.661458 z m -0.132292,1.852083 h 0.264584 v 0.264584 h -0.264584 z m -0.926041,0.79375 a 0.13230489,0.13230489 0 1 0 0,0.264584 h 2.38125 a 0.13230489,0.13230489 0 1 0 0,-0.264584 z"
       style="fill:#ffffff;stroke:none;stroke-width:0.264583px;stroke-linecap:round;stroke-linejoin:round;stroke-opacity:1" />
  </g>
</svg>
